<?xml version="1.0" standalone="no"?>
<!DOCTYPE svg PUBLIC "-//W3C//DTD SVG 20010904//EN"
 "http://www.w3.org/TR/2001/REC-SVG-20010904/DTD/svg10.dtd">
<svg version="1.0" xmlns="http://www.w3.org/2000/svg"
 width="700.000000pt" height="700.000000pt" viewBox="0 0 700.000000 700.000000"
 preserveAspectRatio="xMidYMid meet">
<metadata>
Created by potrace 1.11, written by Peter Selinger 2001-2013
</metadata>
<g transform="translate(0.000000,700.000000) scale(0.100000,-0.100000)"
fill="#000000" stroke="none">
<path d="M1556 6324 c-183 -44 -352 -221 -386 -403 -10 -55 -14 -3095 -4
-3161 32 -209 207 -389 425 -436 13 -3 782 -5 1710 -5 l1685 -1 65 -63 c35
-35 212 -212 393 -394 275 -276 336 -333 368 -342 76 -20 154 15 187 85 20 40
21 59 21 378 l0 336 249 0 c231 1 349 10 390 32 9 5 38 19 65 32 28 13 81 54
119 92 76 76 129 171 147 265 13 70 13 3116 0 3186 -37 190 -225 374 -415 405
-38 6 -955 10 -2510 9 -2094 -1 -2459 -3 -2509 -15z m982 -1610 c266 -77 414
-352 331 -613 -33 -105 -130 -221 -226 -270 -80 -40 -136 -54 -223 -54 -361
-3 -593 371 -431 692 36 70 129 167 193 201 111 59 246 76 356 44z m1683 0
c123 -37 231 -120 293 -227 186 -317 -64 -726 -435 -712 -361 13 -578 425
-384 730 33 53 107 128 147 150 130 74 261 94 379 59z m1691 -4 c252 -78 398
-342 324 -589 -63 -212 -263 -356 -481 -346 -204 10 -383 154 -439 353 -15 56
-22 161 -13 202 25 110 66 187 139 260 122 123 307 170 470 120z"/>
<path d="M306 3838 c-107 -14 -219 -86 -263 -171 -43 -85 -43 -69 -43 -1152 1
-1081 0 -1068 43 -1151 23 -44 89 -107 138 -131 69 -35 121 -42 297 -43 l162
0 0 -137 c1 -264 4 -316 23 -344 21 -32 63 -51 97 -45 14 2 29 5 35 5 5 1 125
117 267 258 l258 258 1108 1 c609 0 1123 4 1142 8 114 27 212 117 250 231 18
51 23 575 6 581 -6 2 -519 5 -1141 7 l-1130 2 -79 23 c-323 91 -536 326 -602
662 -4 19 -7 281 -8 582 -1 301 -4 550 -8 554 -10 9 -478 11 -552 2z"/>
</g>
</svg>
